# xmcd
#
# Track frame offsets: 
#        150
#        21777
#        43258
#        71229
#        88381
#        104842
#        125004
#        148031
#        173755
#        199552
#        218685
#        238607
#        258938
#        281956
#
# Disc length: 4094 seconds
#
# Revision: 0
# Processed by: cddbd v1.5.2PL0 Copyright (c) Steve Scherf et al.
# Submitted via: ExactAudioCopy v1.0b3
#
DISCID=df0ffc0e
DTITLE=Various Artist - The Rough Guide To African Blues: Third Edition (Disc
DTITLE=1)
DYEAR=2014
DGENRE=Ethnic
TTITLE0=Ali Farka Touré - Yer Mali Gakoyoyo
TTITLE1=Amadou Diagne - Jef Jel
TTITLE2=Samba Touré - Dani Dou
TTITLE3=Nuru Kane - Niang Balo
TTITLE4=Tamikrest  - Tamiditin
TTITLE5=West African Blues Project - Lalumbe
TTITLE6=Bombino - Adounia (Life)
TTITLE7=Nogabe Randriaharimalala - Miraisahina (Unity)
TTITLE8=Lala Njava - Blues Song
TTITLE9=Dominic Kakolobango - Gueza Tabiya
TTITLE10=Dilon Djindji - Sofala
TTITLE11=Menelik Wesnatchew - Tezeta
TTITLE12=Amira Kheir - Ahel Allel
TTITLE13=Danyel Waro - Nailé
EXTD=
EXTT0=
EXTT1=
EXTT2=
EXTT3=
EXTT4=
EXTT5=
EXTT6=
EXTT7=
EXTT8=
EXTT9=
EXTT10=
EXTT11=
EXTT12=
EXTT13=
PLAYORDER=
